<?xml version="1.0" encoding="UTF-8"?>
<!DOCTYPE svg PUBLIC "-//W3C//DTD SVG 1.1//EN" "http://www.w3.org/Graphics/SVG/1.1/DTD/svg11.dtd">
<!-- Creator: CorelDRAW X7 -->
<svg xmlns="http://www.w3.org/2000/svg" xml:space="preserve" width="46.4742mm" height="37.5437mm" version="1.1" style="shape-rendering:geometricPrecision; text-rendering:geometricPrecision; image-rendering:optimizeQuality; fill-rule:evenodd; clip-rule:evenodd"
viewBox="0 0 1821 1471"
 xmlns:xlink="http://www.w3.org/1999/xlink">
 <defs>
  <style type="text/css">
   <![CDATA[
    .fil1 {fill:#FA4981}
    .fil3 {fill:#FAFAFB}
    .fil0 {fill:#FD5E8F}
    .fil2 {fill:#FEFAFA}
   ]]>
  </style>
 </defs>
 <g id="Capa_x0020_1">
  <metadata id="CorelCorpID_0Corel-Layer"/>
  <g id="_2013397788496">
   <path class="fil0" d="M74 1148c-1,-5 -1,-4 -3,-10 -3,-7 -8,-9 -12,-15l-21 -35c-7,-13 -10,-32 -16,-46 -19,-47 -11,-109 -11,-157 0,-37 0,-74 0,-110 3,-7 2,-3 6,-7 7,-7 1,-3 9,-7 29,0 57,1 86,0 21,0 72,4 84,2 39,-6 130,-1 175,-1 1,0 1,1 1,1 0,1 1,1 1,2l7 1c18,3 10,18 15,32 4,12 -2,29 4,59 4,17 -1,5 6,10 -4,-20 -11,-92 -7,-112 9,-40 2,-148 4,-196 2,-59 4,-169 11,-225 3,-21 2,-49 28,-53 6,0 1,-1 7,1 0,0 1,1 2,1 0,0 1,1 1,1l4 2c15,9 15,15 16,35 0,26 1,52 -3,77 -3,18 -4,54 -5,73 -1,12 1,26 0,37l-3 41c-1,24 -5,47 -3,74 2,20 -2,52 -1,81 1,17 2,21 0,39 -1,14 3,22 5,36 4,22 1,54 7,73 1,-12 -2,-35 -3,-48 0,-14 2,-32 0,-44 0,-1 0,-2 -1,-2 0,0 0,-1 0,-2l331 0 4 45c1,15 7,125 11,134 1,3 -1,1 2,5 1,0 1,1 2,1 0,0 1,1 1,1 1,1 2,1 2,1 0,8 -1,20 -1,27 1,8 1,3 1,7 0,0 1,0 2,6l1 25c2,6 1,7 1,14 1,17 2,12 5,25 2,6 8,1 13,12 14,-1 25,4 34,-8l5 -12c3,-16 0,-57 7,-87 3,-13 1,-15 3,-27 0,-1 0,-1 0,-2l4 -48c0,0 0,-1 0,-2l8 -49c0,0 0,-1 0,-2 4,-22 -3,-10 6,-37 1,-1 1,-1 1,-2l1 -16c4,1 0,5 5,0 5,-4 1,-2 4,-9 17,-1 38,-2 54,-1 8,0 16,1 20,8 4,8 11,58 12,68 1,9 0,19 1,27 1,0 1,1 1,1l1 6c0,0 -3,4 -3,10 7,1 -7,1 3,-2 3,-1 1,-3 10,4 4,4 2,0 5,6 3,8 2,19 4,28 4,13 1,28 13,37l6 5c2,2 2,1 5,4 7,6 5,5 8,13 6,-6 16,-4 24,-11l2 -2c5,-6 9,-8 8,-16 -39,61 -59,-19 -67,-52 -19,-82 -33,-211 -33,-295 0,-57 0,-106 -4,-161l-29 89c-21,69 -52,220 -61,289 -8,72 -15,139 -22,211 -2,21 -7,32 -26,32 -18,-1 -22,-18 -23,-34 -18,-175 -28,-381 -30,-556 0,-13 -2,-45 3,-55 7,-16 28,-17 39,-8 14,13 12,25 13,46 2,55 3,259 8,287 5,-9 20,-102 24,-121 14,-72 37,-164 64,-230 10,-25 47,-93 70,-41 29,63 21,193 24,270 1,52 9,235 23,272l3 -3c9,-17 -7,13 2,-4 30,-61 86,-487 173,-521 29,-11 37,22 43,42 7,21 12,47 17,71 25,146 22,252 46,395 3,18 7,59 12,73l1 -15c0,-9 -1,-8 -4,-16 0,0 -2,-9 -2,-12 -1,-5 -1,-17 -3,-24 -3,-12 -6,-19 -5,-34 2,-22 2,-5 -4,-21l0 -8c4,-26 -5,-14 -1,-53 27,3 439,2 469,1l-5 259c-3,17 -4,5 -9,30l-29 64c-8,15 -1,9 -12,21 -8,7 -13,26 -31,37 0,0 -4,-3 -8,8 -3,6 -2,-2 -3,9 5,-3 2,-1 4,-4 0,0 3,-3 4,-4l24 -27c9,-10 36,-48 41,-60 6,-18 2,-12 11,-30l15 -46c2,-10 1,-20 3,-30 8,-62 3,-172 3,-236l0 -404c0,-75 -9,-119 -45,-176l-26 -41c-6,-10 1,-8 -21,-30 -4,-3 -6,-4 -9,-8 -21,-19 -43,-35 -68,-49 -5,-3 -6,-3 -12,-6 -38,-17 -51,-18 -91,-29 -19,-5 -42,-4 -64,-4l-1082 0c-43,0 -93,-4 -129,5 -15,4 -67,17 -77,24l-22 13c-8,6 -11,8 -19,12 -2,2 -2,1 -4,3l-15 7c-1,0 -1,1 -2,1 0,0 -1,1 -1,1l-18 16c-8,7 -10,6 -18,17 -13,18 -9,10 -17,18l-52 82c-7,13 1,6 -9,25l-16 53c-3,24 -2,626 -1,675l15 88c12,28 13,38 22,57l7 10c1,1 18,34 29,40z"/>
   <path class="fil1" d="M403 662c-1,-92 3,-191 11,-280 2,-24 2,-47 4,-70 3,-22 22,-35 40,-21 17,13 10,37 9,60 -10,179 -33,453 14,615 10,36 29,80 61,86 64,12 121,-79 152,-51 41,38 -80,86 -105,97 -85,35 -137,-49 -156,-115 -31,-105 -30,-212 -30,-321zm-329 486c3,11 9,11 17,19l30 30c0,0 1,0 1,1 14,11 38,29 53,35 10,5 16,9 26,14l43 13c10,3 7,2 12,9 22,2 44,7 81,7l279 0c167,0 346,-2 512,0 24,0 40,22 58,35 6,4 8,5 14,9 6,4 7,5 14,10 29,19 87,56 118,68l31 16c9,4 23,10 32,14 23,8 46,16 68,24 12,5 61,18 72,19 -3,-7 -38,-48 -55,-84 -12,-26 -31,-74 -30,-110 38,-4 77,5 134,-14 24,-9 42,-13 64,-27 10,-6 23,-11 38,-22 3,-3 3,-3 6,-7 7,-8 0,-1 7,-8 4,-3 12,-11 15,-14 1,-11 0,-3 3,-9 4,-11 8,-8 8,-8 18,-11 23,-30 31,-37 11,-12 4,-6 12,-21l29 -64c5,-25 6,-13 9,-30l5 -259c-30,1 -442,2 -469,-1 -4,39 5,27 1,53l0 8c6,16 6,-1 4,21 -1,15 2,22 5,34 2,7 2,19 3,24 0,3 2,12 2,12 3,8 4,7 4,16l-1 15c4,35 7,73 7,110 0,17 -1,37 -24,35 -33,-4 -58,-193 -60,-227 -4,-72 -11,-145 -13,-217 -2,-73 -13,-136 -27,-201 -5,4 -4,5 -7,15 -45,132 -81,392 -145,489 1,8 -3,10 -8,16l-2 2c-8,7 -18,5 -24,11 -3,-8 -1,-7 -8,-13 -3,-3 -3,-2 -5,-4l-6 -5c-12,-9 -9,-24 -13,-37 -2,-9 -1,-20 -4,-28 -3,-6 -1,-2 -5,-6 -9,-7 -7,-5 -10,-4 -10,3 4,3 -3,2 0,-6 3,-10 3,-10l-1 -6c0,0 0,-1 -1,-1 -1,-8 0,-18 -1,-27 -1,-10 -8,-60 -12,-68 -4,-7 -12,-8 -20,-8 -16,-1 -37,0 -54,1 -3,7 1,5 -4,9 -5,5 -1,1 -5,0l-1 16c0,1 0,1 -1,2 -9,27 -2,15 -6,37 0,1 0,2 0,2l-8 49c0,1 0,2 0,2l-4 48c0,1 0,1 0,2 -2,12 0,14 -3,27 -7,30 -4,71 -7,87l-5 12c-9,12 -20,7 -34,8 -5,-11 -11,-6 -13,-12 -3,-13 -4,-8 -5,-25 0,-7 1,-8 -1,-14l-1 -25c-1,-6 -2,-6 -2,-6 0,-4 0,1 -1,-7 0,-7 1,-19 1,-27 0,0 -1,0 -2,-1 0,0 -1,-1 -1,-1 -1,0 -1,-1 -2,-1 -3,-4 -1,-2 -2,-5 -4,-9 -10,-119 -11,-134l-4 -45 -331 0c0,1 0,2 0,2 1,0 1,1 1,2 2,12 0,30 0,44 1,13 4,36 3,48 -6,-19 -3,-51 -7,-73 -2,-14 -6,-22 -5,-36 2,-18 1,-22 0,-39 -1,-29 3,-61 1,-81 -2,-27 2,-50 3,-74l3 -41c1,-11 -1,-25 0,-37 1,-19 2,-55 5,-73 4,-25 3,-51 3,-77 -1,-20 -1,-26 -16,-35l-4 -2c0,0 -1,-1 -1,-1 -1,0 -2,-1 -2,-1 -6,-2 -1,-1 -7,-1 -26,4 -25,32 -28,53 -7,56 -9,166 -11,225 -2,48 5,156 -4,196 -4,20 3,92 7,112 -7,-5 -2,7 -6,-10 -6,-30 0,-47 -4,-59 -5,-14 3,-29 -15,-32l-7 -1c0,-1 -1,-1 -1,-2 0,0 0,-1 -1,-1 -45,0 -136,-5 -175,1 -12,2 -63,-2 -84,-2 -29,1 -57,0 -86,0 -8,4 -2,0 -9,7 -4,4 -3,0 -6,7 0,36 0,73 0,110 0,48 -8,110 11,157 6,14 9,33 16,46l21 35c4,6 9,8 12,15 2,6 2,5 3,10z"/>
   <path class="fil2" d="M1091 943c64,-97 100,-357 145,-489 3,-10 2,-11 7,-15 14,65 25,128 27,201 2,72 9,145 13,217 2,34 27,223 60,227 23,2 24,-18 24,-35 0,-37 -3,-75 -7,-110 -5,-14 -9,-55 -12,-73 -24,-143 -21,-249 -46,-395 -5,-24 -10,-50 -17,-71 -6,-20 -14,-53 -43,-42 -87,34 -143,460 -173,521 -9,17 7,-13 -2,4l-3 3c-14,-37 -22,-220 -23,-272 -3,-77 5,-207 -24,-270 -23,-52 -60,16 -70,41 -27,66 -50,158 -64,230 -4,19 -19,112 -24,121 -5,-28 -6,-232 -8,-287 -1,-21 1,-33 -13,-46 -11,-9 -32,-8 -39,8 -5,10 -3,42 -3,55 2,175 12,381 30,556 1,16 5,33 23,34 19,0 24,-11 26,-32 7,-72 14,-139 22,-211 9,-69 40,-220 61,-289l29 -89c4,55 4,104 4,161 0,84 14,213 33,295 8,33 28,113 67,52z"/>
   <path class="fil3" d="M403 662c0,109 -1,216 30,321 19,66 71,150 156,115 25,-11 146,-59 105,-97 -31,-28 -88,63 -152,51 -32,-6 -51,-50 -61,-86 -47,-162 -24,-436 -14,-615 1,-23 8,-47 -9,-60 -18,-14 -37,-1 -40,21 -2,23 -2,46 -4,70 -8,89 -12,188 -11,280z"/>
  </g>
 </g>
</svg>
